<?xml version="1.0" encoding="UTF-8"?>
<svg xmlns="http://www.w3.org/2000/svg" xmlns:xlink="http://www.w3.org/1999/xlink" width="170px" height="132px" viewBox="0 0 170 132" version="1.1">
<g id="surface1">
<path style=" stroke:none;fill-rule:nonzero;fill:rgb(13.333333%,13.72549%,11.764706%);fill-opacity:1;" d="M 59.007812 85.425781 L 33.613281 47.40625 L 59.007812 9.390625 L 111.605469 9.390625 L 135.175781 44.675781 L 145.9375 44.675781 L 116.082031 0 L 54.53125 0 L 22.851562 47.40625 L 54.53125 94.835938 L 113.84375 94.835938 L 104.550781 85.425781 Z M 59.007812 85.425781 "/>
<path style=" stroke:none;fill-rule:nonzero;fill:rgb(13.333333%,13.72549%,11.764706%);fill-opacity:1;" d="M 56.769531 37.191406 L 66.066406 46.601562 L 111.605469 46.601562 L 137.019531 84.617188 L 111.605469 122.636719 L 59.007812 122.636719 L 35.441406 87.351562 L 24.679688 87.351562 L 54.53125 132.027344 L 116.082031 132.027344 L 147.761719 84.617188 L 116.082031 37.191406 Z M 8.9375 62.800781 L 0 68.339844 L 0 79.425781 L 8.9375 84.964844 L 17.871094 79.425781 L 17.871094 68.339844 Z M 151.328125 50.71875 L 151.328125 61.800781 L 160.265625 67.320312 L 169.199219 61.800781 L 169.199219 50.71875 L 160.265625 45.15625 Z M 157.898438 90.410156 L 163.953125 94.160156 L 169.988281 90.410156 L 169.988281 82.90625 L 163.953125 79.152344 L 157.898438 82.90625 Z M 147.675781 111.535156 L 153.207031 111.941406 L 156.289062 106.996094 L 153.835938 101.644531 L 148.320312 101.261719 L 145.21875 106.207031 Z M 13.59375 52.257812 L 13.59375 44.753906 L 7.539062 41 L 1.503906 44.753906 L 1.503906 52.257812 L 7.539062 55.988281 Z M 12.429688 27.707031 L 10.835938 33.402344 L 14.613281 37.730469 L 20.003906 36.382812 L 21.617188 30.6875 L 17.820312 26.339844 Z M 12.429688 27.707031 "/>
</g>
</svg>
