<?xml version="1.0" encoding="UTF-8" standalone="no"?>
<!-- Created with Inkscape (http://www.inkscape.org/) -->

<svg
   xmlns:dc="http://purl.org/dc/elements/1.1/"
   xmlns:cc="http://creativecommons.org/ns#"
   xmlns:rdf="http://www.w3.org/1999/02/22-rdf-syntax-ns#"
   xmlns:svg="http://www.w3.org/2000/svg"
   xmlns="http://www.w3.org/2000/svg"
   xmlns:sodipodi="http://sodipodi.sourceforge.net/DTD/sodipodi-0.dtd"
   xmlns:inkscape="http://www.inkscape.org/namespaces/inkscape"
   width="210.06476mm"
   height="163.01579mm"
   viewBox="0 0 210.06476 163.01579"
   version="1.1"
   id="svg1148"
   inkscape:version="0.92.4 (unknown)"
   sodipodi:docname="svg1.svg">
  <defs
     id="defs1142" />
  <sodipodi:namedview
     id="base"
     pagecolor="#ffffff"
     bordercolor="#666666"
     borderopacity="1.0"
     inkscape:pageopacity="0.0"
     inkscape:pageshadow="2"
     inkscape:zoom="0.49497475"
     inkscape:cx="253.19575"
     inkscape:cy="-80.522162"
     inkscape:document-units="mm"
     inkscape:current-layer="g1111"
     showgrid="false"
     inkscape:window-width="1860"
     inkscape:window-height="1052"
     inkscape:window-x="60"
     inkscape:window-y="0"
     inkscape:window-maximized="1"
     fit-margin-top="0"
     fit-margin-left="0"
     fit-margin-right="0"
     fit-margin-bottom="0" />
  <metadata
     id="metadata1145">
    <rdf:RDF>
      <cc:Work
         rdf:about="">
        <dc:format>image/svg+xml</dc:format>
        <dc:type
           rdf:resource="http://purl.org/dc/dcmitype/StillImage" />
        <dc:title></dc:title>
      </cc:Work>
    </rdf:RDF>
  </metadata>
  <g
     inkscape:label="Calque 1"
     inkscape:groupmode="layer"
     id="layer1"
     style="display:inline"
     transform="translate(0.26275742,0.19440319)">
    <g
       transform="matrix(2.2130716,0,0,2.375631,-789.75392,-84.55306)"
       id="g1111"
       style="display:inline"
       inkscape:groupmode="layer">
      <polygon
         style="fill:#22231e"
         id="polygon181"
         points="389.69,79.91 375.51,60.15 389.69,40.39 419.06,40.39 432.22,58.73 438.23,58.73 421.56,35.51 387.19,35.51 369.5,60.15 387.19,84.8 420.31,84.8 415.12,79.91 "
         class="cls-8" />
      <polygon
         style="fill:#22231e"
         id="polygon183"
         points="388.44,54.84 393.63,59.73 419.06,59.73 433.25,79.49 419.06,99.25 389.69,99.25 376.53,80.91 370.52,80.91 387.19,104.13 421.56,104.13 439.25,79.49 421.56,54.84 "
         class="cls-8" />
      <polygon
         style="fill:#22231e"
         id="polygon201"
         points="361.73,68.15 356.74,71.03 356.74,76.79 361.73,79.67 366.72,76.79 366.72,71.03 "
         class="cls-8" />
      <polygon
         style="fill:#22231e"
         id="polygon203"
         points="441.24,61.87 441.24,67.63 446.23,70.5 451.22,67.63 451.22,61.87 446.23,58.98 "
         class="cls-8" />
      <polygon
         style="fill:#22231e"
         id="polygon205"
         points="444.91,82.5 448.29,84.45 451.66,82.5 451.66,78.6 448.29,76.65 444.91,78.6 "
         class="cls-8" />
      <polygon
         style="fill:#22231e"
         id="polygon207"
         points="439.2,93.48 442.29,93.69 444.01,91.12 442.64,88.34 439.56,88.14 437.83,90.71 "
         class="cls-8" />
      <polygon
         style="fill:#22231e"
         id="polygon209"
         points="364.33,62.67 364.33,58.77 360.95,56.82 357.58,58.77 357.58,62.67 360.95,64.61 "
         class="cls-8" />
      <polygon
         style="fill:#22231e"
         id="polygon211"
         points="363.68,49.91 362.79,52.87 364.9,55.12 367.91,54.42 368.81,51.46 366.69,49.2 "
         class="cls-8" />
    </g>
  </g>
</svg>
