<?xml version="1.0" encoding="UTF-8" standalone="no"?>
<svg
   xmlns:dc="http://purl.org/dc/elements/1.1/"
   xmlns:cc="http://creativecommons.org/ns#"
   xmlns:rdf="http://www.w3.org/1999/02/22-rdf-syntax-ns#"
   xmlns:svg="http://www.w3.org/2000/svg"
   xmlns="http://www.w3.org/2000/svg"
   id="svg4239"
   version="1.1"
   viewBox="0 0 17.922874 25.598436"
   height="25.598436mm"
   width="17.922874mm">
  <defs
     id="defs4233" />
  <metadata
     id="metadata4236">
    <rdf:RDF>
      <cc:Work
         rdf:about="">
        <dc:format>image/svg+xml</dc:format>
        <dc:type
           rdf:resource="http://purl.org/dc/dcmitype/StillImage" />
        <dc:title></dc:title>
      </cc:Work>
    </rdf:RDF>
  </metadata>
  <g
     transform="translate(-177.00285,-118.64721)"
     id="layer1">
    <polygon
       style="fill:#22231e"
       id="polygon41"
       points="120.5,235.18 124.74,235.18 124.74,205.54 121.13,201.93 90.87,232.18 85.93,227.24 116.18,196.98 113.19,193.99 82.93,224.24 77.99,219.3 108.24,189.04 105.25,186.05 74.99,216.31 70.05,211.36 100.31,181.11 97.31,178.11 67.06,208.37 62.11,203.42 92.37,173.17 89.37,170.18 57,202.55 57,235.18 61.23,235.18 61.23,208.53 64.94,212.24 64.94,243.11 69.17,243.11 69.17,216.47 72.88,220.18 72.88,251.05 77.11,251.05 77.11,224.41 80.81,228.11 80.81,258.99 85.05,258.99 85.05,232.35 88.75,236.05 88.75,266.93 92.99,266.93 92.99,236.05 96.69,232.35 96.69,258.99 100.92,258.99 100.92,228.11 104.63,224.41 104.63,251.05 108.86,251.05 108.86,220.18 112.57,216.47 112.57,243.11 116.8,243.11 116.8,212.24 120.5,208.53 "
       class="cls-8"
       transform="matrix(0.26458333,0,0,0.26458333,161.9216,73.620419)" />
  </g>
</svg>
