<svg xmlns="http://www.w3.org/2000/svg" width="793.946" height="616.123" viewBox="0 0 210.065 163.016"><path class="cls-8" fill="#22231e" d="M72.92 105.478L41.54 58.536l31.38-46.943h64.999l29.124 43.57h13.3L143.451 0H67.388l-39.15 58.536 39.15 58.559h73.297l-11.486-11.617z"/><path class="cls-8" fill="#22231e" d="M70.154 45.92L81.64 57.539h56.279l31.403 46.942-31.403 46.943H72.92l-29.124-43.57h-13.3l36.891 55.163h76.063l39.15-58.536-39.15-58.56zM11.043 77.54L0 84.383v13.684l11.043 6.842 11.043-6.842V84.382zm175.962-14.918v13.683l11.043 6.818 11.043-6.818V62.622l-11.043-6.866zm8.122 49.008l7.48 4.633 7.458-4.632v-9.265l-7.458-4.633-7.48 4.633zm-12.637 26.085l6.838.5 3.807-6.106-3.032-6.604-6.816-.476-3.829 6.106zM16.797 64.522v-9.265l-7.48-4.632-7.458 4.632v9.265l7.458 4.609zM15.359 34.21l-1.97 7.031 4.67 5.345 6.661-1.663 1.992-7.032-4.692-5.369z"/></svg>