<svg xmlns="http://www.w3.org/2000/svg" width="170" height="132"><g fill="#22231e"><path d="M59.008 85.426l-25.395-38.02L59.008 9.391h52.597l23.57 35.285h10.762L116.082 0h-61.55l-31.68 47.406 31.68 47.43h59.312l-9.293-9.41zm0 0"/><path d="M56.77 37.191l9.296 9.41h45.54l25.414 38.016-25.415 38.02H59.008L35.44 87.352H24.68l29.851 44.675h61.551l31.68-47.41-31.68-47.426zM8.937 62.801L0 68.34v11.086l8.938 5.539 8.933-5.54V68.34zm142.391-12.082V61.8l8.938 5.52 8.933-5.52V50.719l-8.933-5.563zm6.57 39.691l6.055 3.75 6.035-3.75v-7.504l-6.035-3.754-6.055 3.754zm-10.222 21.125l5.531.406 3.082-4.945-2.453-5.351-5.516-.383-3.101 4.945zM13.594 52.258v-7.504L7.539 41l-6.035 3.754v7.504l6.035 3.73zM12.43 27.707l-1.594 5.695 3.777 4.328 5.39-1.347 1.614-5.696-3.797-4.347zm0 0"/></g></svg>