<?xml version="1.0" encoding="UTF-8" standalone="no"?>
<svg
   xmlns:dc="http://purl.org/dc/elements/1.1/"
   xmlns:cc="http://creativecommons.org/ns#"
   xmlns:rdf="http://www.w3.org/1999/02/22-rdf-syntax-ns#"
   xmlns:svg="http://www.w3.org/2000/svg"
   xmlns="http://www.w3.org/2000/svg"
   id="svg3599"
   version="1.1"
   viewBox="0 0 21.029083 24.283459"
   height="24.283459mm"
   width="21.029083mm">
  <defs
     id="defs3593" />
  <metadata
     id="metadata3596">
    <rdf:RDF>
      <cc:Work
         rdf:about="">
        <dc:format>image/svg+xml</dc:format>
        <dc:type
           rdf:resource="http://purl.org/dc/dcmitype/StillImage" />
        <dc:title></dc:title>
      </cc:Work>
    </rdf:RDF>
  </metadata>
  <g
     transform="translate(-139.91998,-137.44756)"
     id="layer1">
    <g
       id="g3564"
       transform="matrix(0.26458333,0,0,0.26458333,84.288691,91.105786)">
      <polygon
         class="cls-8"
         points="256.92,187.15 256.92,179.15 250,175.15 243.08,179.15 243.08,187.15 250,191.14 "
         id="polygon75"
         style="fill:#22231e" />
      <polygon
         class="cls-8"
         points="273.49,188.71 266.56,184.71 259.64,188.71 259.64,196.71 266.56,200.7 273.49,196.71 "
         id="polygon77"
         style="fill:#22231e" />
      <polygon
         class="cls-8"
         points="282.82,194.1 275.89,198.09 275.89,206.09 282.82,210.09 289.74,206.09 289.74,198.09 "
         id="polygon79"
         style="fill:#22231e" />
      <polygon
         class="cls-8"
         points="275.89,217.04 275.89,225.04 282.82,229.03 289.74,225.04 289.74,217.04 282.82,213.04 "
         id="polygon81"
         style="fill:#22231e" />
      <polygon
         class="cls-8"
         points="261.28,215.06 266.56,218.11 271.84,215.06 271.84,208.97 266.56,205.92 261.28,208.97 "
         id="polygon83"
         style="fill:#22231e" />
      <polygon
         class="cls-8"
         points="231.77,216.8 235.91,214.41 235.91,209.62 231.77,207.23 227.63,209.62 227.63,214.41 "
         id="polygon87"
         style="fill:#22231e" />
      <polygon
         class="cls-8"
         points="235.91,233.35 235.91,228.57 231.77,226.18 227.63,228.57 227.63,233.35 231.77,235.74 "
         id="polygon89"
         style="fill:#22231e" />
      <polygon
         class="cls-8"
         points="217.19,219.04 213.72,217.04 210.26,219.04 210.26,223.04 213.72,225.04 217.19,223.04 "
         id="polygon91"
         style="fill:#22231e" />
      <polygon
         class="cls-8"
         points="282.82,231.99 275.89,235.99 275.89,243.98 282.82,247.98 289.74,243.98 289.74,235.99 "
         id="polygon93"
         style="fill:#22231e" />
      <polygon
         class="cls-8"
         points="244.58,198.83 244.58,205.36 250.23,208.62 255.89,205.36 255.89,198.83 250.23,195.56 "
         id="polygon95"
         style="fill:#22231e" />
      <polygon
         class="cls-8"
         points="244.58,243.25 250.23,246.52 255.89,243.25 255.89,236.72 250.23,233.45 244.58,236.72 "
         id="polygon97"
         style="fill:#22231e" />
      <polygon
         class="cls-8"
         points="250.23,226.52 254.98,223.78 254.98,218.3 250.23,215.56 245.49,218.3 245.49,223.78 "
         id="polygon99"
         style="fill:#22231e" />
      <polygon
         class="cls-8"
         points="273.49,253.37 273.49,245.37 266.56,241.37 259.64,245.37 259.64,253.37 266.56,257.37 "
         id="polygon101"
         style="fill:#22231e" />
      <polygon
         class="cls-8"
         points="237.45,188.96 231.77,185.68 226.09,188.96 226.09,195.51 231.77,198.79 237.45,195.51 "
         id="polygon103"
         style="fill:#22231e" />
      <polygon
         class="cls-8"
         points="213.47,195.49 210.26,197.34 210.26,201.05 213.47,202.91 216.68,201.05 216.68,197.34 "
         id="polygon105"
         style="fill:#22231e" />
      <polygon
         class="cls-8"
         points="243.08,254.93 243.08,262.93 250,266.93 256.92,262.93 256.92,254.93 250,250.94 "
         id="polygon107"
         style="fill:#22231e" />
      <polygon
         class="cls-8"
         points="226.09,253.12 231.77,256.4 237.45,253.12 237.45,246.56 231.77,243.29 226.09,246.56 "
         id="polygon109"
         style="fill:#22231e" />
      <polygon
         class="cls-8"
         points="214.78,247.26 219.29,244.65 219.29,239.44 214.78,236.83 210.26,239.44 210.26,244.65 "
         id="polygon111"
         style="fill:#22231e" />
    </g>
  </g>
</svg>
